<mxfile host="app.diagrams.net" modified="2023-11-08T10:08:56.034Z" agent="Mozilla/5.0 (Windows NT 10.0; Win64; x64) AppleWebKit/537.36 (KHTML, like Gecko) Chrome/119.0.0.0 Safari/537.36" version="22.0.8" etag="-K8szdAn3nMh_ztOcwWs" type="github">
  <diagram name="페이지-1" id="8rOGZLujNaaR3ZbrEMTA">
    <mxGraphModel>
      <root>
        <mxCell id="0" />
        <mxCell id="1" parent="0" />
      </root>
    </mxGraphModel>
  </diagram>
</mxfile>
